<?xml version="1.0" encoding="utf-8"?>
<svg version="1.1" id="Ebene_1" xmlns="http://www.w3.org/2000/svg" xmlns:xlink="http://www.w3.org/1999/xlink" x="0px" y="0px"
	 viewBox="0 0 355.17 152.68" style="enable-background:new 0 0 355.17 152.68;" xml:space="preserve">
<style type="text/css">
	.st0{display:none;}
	.st1{display:inline;}
	.st2{fill:#FFFFFF;}
	.st3{fill:#6FA321;}
	.st4{fill:#1B90CF;}
	.st5{fill:#25599B;}
	.st6{fill:#F08600;}
	.st7{fill:#B61722;}
	.st8{fill:#414140;}
</style>
<g id="white_backgrounds" class="st0">
	<g class="st1">
		<rect y="0" class="st2" width="355.17" height="152.68"/>
	</g>
</g>
<g id="positive_colors">
	<g>
		<g>
			<path class="st3" d="M63.42,103.89v-42.9L39.39,45.01v-3.4c0-0.63-0.52-1.15-1.15-1.15s-1.15,0.51-1.15,1.15v4.63l24.03,15.97
				v41.67c0,0.64,0.51,1.15,1.15,1.15C62.91,105.04,63.42,104.52,63.42,103.89L63.42,103.89z M53.45,81.99V69.72l-19.9-12.61
				c-0.54-0.34-1.25-0.18-1.59,0.36s-0.18,1.25,0.36,1.59l18.83,11.93V82c0,0.64,0.51,1.15,1.15,1.15S53.45,82.62,53.45,81.99
				L53.45,81.99z"/>
			<path class="st4" d="M32.94,54.78h-1.15c0,1.54-0.62,2.92-1.63,3.92c-1.01,1-2.39,1.62-3.92,1.62c-3.07,0-5.55-2.47-5.55-5.55
				c0-1.53,0.62-2.91,1.62-3.91c1.01-1.01,2.39-1.62,3.92-1.63c1.53,0,2.91,0.62,3.92,1.63c1.01,1.01,1.63,2.39,1.63,3.91h1.16h1.15
				c0-4.33-3.52-7.83-7.84-7.84c-4.34,0-7.85,3.52-7.85,7.84c0,2.17,0.88,4.13,2.3,5.55s3.39,2.29,5.55,2.29
				c4.32,0,7.84-3.5,7.84-7.84h-1.15V54.78z"/>
			<path class="st3" d="M55.75,46.07l10.66-7.21V28.63c0-0.64-0.52-1.15-1.15-1.15c-0.63,0-1.15,0.51-1.15,1.15v9.02l-9.65,6.52
				c-0.53,0.36-0.66,1.07-0.31,1.6C54.51,46.29,55.23,46.43,55.75,46.07L55.75,46.07z M69.39,51.65l17.05-11.78
				c0.52-0.36,0.65-1.08,0.29-1.6c-0.36-0.52-1.08-0.65-1.6-0.29L68.09,49.76c-0.52,0.36-0.65,1.08-0.29,1.6
				C68.16,51.88,68.87,52.01,69.39,51.65L69.39,51.65z M89.86,41.61V51L72.04,63.58v17.93l26.99-18.07
				c0.53-0.35,0.67-1.07,0.32-1.59c-0.35-0.53-1.07-0.67-1.59-0.32L74.34,77.2V64.77L92.16,52.2V41.61c0-0.63-0.52-1.15-1.15-1.15
				C90.38,40.46,89.86,40.97,89.86,41.61L89.86,41.61z"/>
			<path class="st5" d="M98.21,34.47h-1.15c0,1.53-0.62,2.91-1.63,3.91c-1.01,1-2.39,1.62-3.92,1.62s-2.91-0.62-3.92-1.62
				c-1.01-1.01-1.63-2.38-1.63-3.91c0-1.54,0.62-2.92,1.63-3.92c1.01-1,2.39-1.62,3.92-1.62s2.91,0.62,3.92,1.62
				c1,1,1.63,2.38,1.63,3.92H98.21h1.15c0-2.17-0.88-4.14-2.3-5.55c-1.42-1.42-3.38-2.29-5.54-2.29c-4.32,0-7.85,3.49-7.85,7.84
				c0,4.33,3.53,7.83,7.85,7.84c4.32,0,7.84-3.5,7.84-7.84H98.21L98.21,34.47z"/>
			<path class="st6" d="M110.48,58.6h-1.15c0,3.06-2.47,5.53-5.53,5.53c-3.07,0-5.53-2.47-5.53-5.53c0-3.07,2.47-5.54,5.53-5.54
				c3.07,0,5.53,2.47,5.53,5.54H110.48h1.15c0-2.16-0.88-4.13-2.29-5.54c-1.42-1.42-3.38-2.29-5.54-2.29s-4.13,0.88-5.54,2.29
				c-1.42,1.41-2.29,3.38-2.29,5.54s0.88,4.13,2.29,5.54c1.41,1.41,3.38,2.29,5.54,2.29s4.13-0.88,5.54-2.29
				c1.42-1.41,2.29-3.38,2.29-5.54H110.48L110.48,58.6z"/>
			<path class="st7" d="M71.18,21.3h-1.15c0,1.53-0.62,2.91-1.62,3.92c-1.01,1.01-2.38,1.63-3.91,1.63c-1.54,0-2.91-0.62-3.92-1.63
				c-1-1.01-1.62-2.39-1.62-3.92c0-3.07,2.47-5.55,5.54-5.55c1.53,0,2.91,0.62,3.91,1.62c1,1.01,1.62,2.39,1.62,3.92h1.15h1.15
				c0-4.33-3.51-7.84-7.84-7.84c-2.17,0-4.14,0.88-5.55,2.3c-1.42,1.42-2.29,3.39-2.29,5.55s0.88,4.12,2.29,5.54
				c1.41,1.42,3.38,2.31,5.55,2.3c4.33,0,7.83-3.52,7.84-7.85h-1.15V21.3z"/>
			<path class="st8" d="M45.22,33.61h-1.15c0,1.53-0.62,2.91-1.63,3.92c-1.01,1.01-2.39,1.63-3.92,1.63c-1.53,0-2.91-0.62-3.92-1.63
				c-1.01-1.01-1.63-2.39-1.63-3.92c0-1.54,0.62-2.92,1.63-3.92c1.01-1.01,2.39-1.62,3.92-1.62c3.07,0,5.55,2.48,5.55,5.55
				L45.22,33.61l1.15,0.01c0-2.16-0.88-4.13-2.3-5.55c-1.42-1.42-3.39-2.3-5.55-2.3c-4.32,0-7.84,3.51-7.84,7.85
				c0,4.33,3.52,7.84,7.84,7.84c4.34,0,7.85-3.52,7.85-7.84L45.22,33.61L45.22,33.61z"/>
		</g>
		<g>
			<path class="st3" d="M276.19,121.44h18.99c1.2,0,2.17-0.97,2.17-2.17s-0.97-2.17-2.17-2.17h-18.99c-1.2,0-2.17,0.97-2.17,2.17
				S274.99,121.44,276.19,121.44L276.19,121.44z M276.05,111.97h19c1.2,0,2.17-0.97,2.17-2.17s-0.97-2.17-2.17-2.17h-19
				c-1.2,0-2.17,0.97-2.17,2.17C273.87,111,274.85,111.97,276.05,111.97L276.05,111.97z M276.05,102.19h19
				c1.2,0,2.17-0.97,2.17-2.17s-0.97-2.17-2.17-2.17h-19c-1.2,0-2.17,0.97-2.17,2.17C273.87,101.22,274.85,102.19,276.05,102.19
				L276.05,102.19z"/>
			<path class="st8" d="M98.16,117.54c-0.34-0.35-0.88-0.57-1.75-0.57l0,0l-9.74-0.01c-1.08,0-1.99-0.28-2.62-0.91
				c-0.63-0.63-0.9-1.54-0.9-2.61v-7.62c0-1.08,0.25-1.99,0.83-2.64c0.59-0.65,1.46-0.94,2.48-0.94h0.05h0.01h9.74
				c0.9-0.03,1.49-0.26,1.86-0.61c0.36-0.36,0.58-0.9,0.58-1.76c0-0.87-0.22-1.42-0.58-1.77s-0.94-0.57-1.86-0.57H96.2l0,0h-9.6
				c-2.83,0-4.84,0.71-6.17,2.04c-1.32,1.33-2.03,3.37-2.03,6.23v7.49c0,2.9,0.71,4.98,2.03,6.33s3.34,2.07,6.16,2.07h9.75
				c0.88,0,1.45-0.22,1.8-0.56c0.35-0.35,0.57-0.9,0.57-1.77C98.71,118.47,98.5,117.89,98.16,117.54z"/>
			<path class="st8" d="M135.62,105.91c0-2.89-0.71-4.96-2.03-6.31c-1.32-1.35-3.34-2.07-6.16-2.07l0,0l-21.3-0.04l0,0
				c-0.91,0.02-1.5,0.25-1.85,0.6c-0.36,0.35-0.57,0.9-0.58,1.78v19.37c0,0.9,0.22,1.48,0.57,1.84c0.35,0.36,0.9,0.57,1.77,0.58
				c0.9,0,1.47-0.22,1.83-0.58s0.58-0.93,0.58-1.83v-16.97h5.35c1.07,0,1.98,0.27,2.6,0.91c0.63,0.63,0.9,1.54,0.9,2.63v13.47
				c0,0.9,0.22,1.48,0.57,1.84c0.35,0.36,0.91,0.58,1.8,0.58s1.45-0.22,1.8-0.57c0.35-0.35,0.57-0.91,0.57-1.8l-0.05-17.06h5.38
				c1.08,0,1.99,0.27,2.62,0.9c0.63,0.63,0.9,1.55,0.9,2.63v13.47c0,0.9,0.22,1.48,0.58,1.84c0.36,0.36,0.91,0.58,1.79,0.58
				c0.89,0,1.46-0.22,1.8-0.57c0.35-0.35,0.56-0.91,0.57-1.8L135.62,105.91L135.62,105.91z"/>
			<path class="st8" d="M156.91,109.07c-1.31-1.17-3.34-1.83-6.17-1.88h-1.86c-1.06,0-1.9-0.16-2.54-0.55
				c-0.65-0.38-1.02-1.09-1-1.85c-0.01-0.8,0.34-1.53,0.99-1.94c0.64-0.42,1.48-0.58,2.53-0.59h7.77c0.84-0.02,1.37-0.24,1.72-0.6
				s0.57-0.93,0.6-1.81c0-0.87-0.22-1.42-0.57-1.76c-0.35-0.35-0.92-0.56-1.8-0.56l0,0l-7.78-0.01c-2.82,0-4.85,0.62-6.15,1.76
				c-1.3,1.14-1.98,2.85-1.98,5.29v0.09l0,0l0,0v0.05c0.01,2.49,0.69,4.24,1.98,5.41c1.3,1.17,3.31,1.81,6.11,1.81h0.13l0,0h1.9l0,0
				c1.02,0.02,1.83,0.19,2.45,0.61c0.63,0.41,0.97,1.12,0.96,1.89v0.01v0.01c-0.01,0.78-0.36,1.5-1,1.92
				c-0.63,0.42-1.46,0.59-2.48,0.59h-7.84c-0.84,0.01-1.37,0.23-1.71,0.6c-0.34,0.37-0.56,0.97-0.57,1.9
				c0.01,0.81,0.22,1.31,0.54,1.63c0.33,0.32,0.86,0.52,1.71,0.52h0.04l7.86,0.01c2.81,0,4.83-0.64,6.14-1.81s1.99-2.93,2.01-5.42
				l0,0C158.89,111.97,158.22,110.24,156.91,109.07z"/>
			<path class="st8" d="M195.29,99.87c0-0.9-0.22-1.48-0.56-1.83s-0.88-0.57-1.75-0.57h-9.71c-2.86,0-4.91,0.71-6.24,2.04
				c-1.34,1.33-2.04,3.38-2.05,6.24v7.48c0,2.9,0.71,4.98,2.03,6.33c1.32,1.35,3.34,2.07,6.16,2.07h7.38v0.54
				c0,0.76-0.2,1.43-0.68,1.9s-1.15,0.66-1.92,0.66h-0.02l0,0H181c-0.85,0-1.37,0.21-1.7,0.55c-0.33,0.34-0.54,0.9-0.54,1.78
				c0.01,0.89,0.23,1.46,0.56,1.81c0.34,0.35,0.87,0.56,1.71,0.56h6.07c2.83,0,4.85-0.69,6.17-1.99c1.32-1.3,2.02-3.28,2.02-6.06
				L195.29,99.87L195.29,99.87z M190.55,116.9h-7.32c-1.08,0-1.99-0.28-2.62-0.92c-0.63-0.63-0.9-1.55-0.9-2.63v-7.6
				c0-1.07,0.27-1.98,0.89-2.61s1.53-0.91,2.6-0.9h7.34L190.55,116.9L190.55,116.9z"/>
			<path class="st8" d="M220.51,99.87c0-0.87-0.22-1.42-0.57-1.77s-0.92-0.56-1.8-0.56l-9.68-0.01c-2.83,0-4.84,0.72-6.16,2.07
				c-1.33,1.35-2.03,3.42-2.03,6.31v13.42c0,0.88,0.22,1.44,0.57,1.8s0.91,0.57,1.8,0.57c0.88,0,1.44-0.22,1.8-0.58
				c0.35-0.36,0.57-0.94,0.57-1.84l0,0l0.03-5.39l10.74,0.03v5.36c0,0.9,0.22,1.48,0.58,1.84c0.36,0.36,0.94,0.58,1.85,0.59
				c0.86,0,1.4-0.22,1.75-0.58s0.56-0.94,0.56-1.85V99.87H220.51z M215.77,108.57v0.54H205v-3.31c0-1.08,0.27-1.99,0.9-2.63
				c0.63-0.63,1.54-0.91,2.61-0.9h7.25v6.3H215.77z"/>
			<path class="st8" d="M243.9,99.87c0-0.87-0.22-1.42-0.57-1.77s-0.92-0.56-1.8-0.56l-7.78-0.01c-2.83,0-4.84,0.72-6.17,2.07
				c-1.32,1.35-2.03,3.42-2.03,6.31v13.42c0,0.88,0.22,1.44,0.57,1.8s0.92,0.57,1.8,0.57c0.89,0,1.45-0.22,1.8-0.58
				s0.57-0.94,0.57-1.84V105.8c0-1.08,0.28-2,0.91-2.63s1.54-0.91,2.61-0.9h5.35v2.44c0,0.9,0.22,1.48,0.58,1.83
				c0.36,0.36,0.94,0.58,1.85,0.58c0.86,0,1.41-0.22,1.75-0.57s0.56-0.93,0.56-1.84L243.9,99.87L243.9,99.87z"/>
			<path class="st8" d="M267.64,90.26c-0.35-0.35-0.92-0.57-1.8-0.57c-0.89,0-1.45,0.23-1.81,0.58c-0.35,0.36-0.57,0.94-0.57,1.84
				v5.41h-7.38c-2.83,0-4.85,0.72-6.18,2.07c-1.33,1.35-2.03,3.42-2.03,6.31v7.59c0,2.83,0.71,4.85,2.04,6.18
				c1.34,1.32,3.37,2.02,6.22,2.03h9.76c0.87,0,1.41-0.22,1.75-0.58c0.35-0.36,0.56-0.94,0.56-1.85V92.05
				C268.21,91.17,268,90.61,267.64,90.26z M263.47,116.39v0.54h-7.34c-1.07,0-1.96-0.25-2.59-0.85c-0.63-0.6-0.92-1.48-0.91-2.51
				v-7.77c0-1.08,0.27-2,0.9-2.63c0.63-0.63,1.54-0.91,2.61-0.9h7.33L263.47,116.39L263.47,116.39z"/>
			<path class="st8" d="M324.4,105.91c0-2.89-0.7-4.96-2.03-6.31c-1.32-1.35-3.34-2.07-6.16-2.07l-9.74,0.01
				c-0.9,0-1.46,0.22-1.81,0.56s-0.56,0.89-0.56,1.77v19.37c0,0.9,0.22,1.48,0.56,1.84c0.35,0.35,0.89,0.57,1.76,0.57
				c0.9,0,1.47-0.22,1.83-0.58s0.58-0.93,0.58-1.83v-16.97h7.34c1.06,0,1.97,0.27,2.6,0.91c0.63,0.63,0.89,1.54,0.89,2.63v13.47
				c0,0.9,0.22,1.48,0.57,1.84c0.35,0.36,0.91,0.58,1.8,0.58c0.88,0,1.45-0.22,1.8-0.57c0.35-0.35,0.57-0.92,0.57-1.8V105.91z"/>
		</g>
	</g>
</g>
</svg>
