<svg id="Ebene_3" data-name="Ebene 3" xmlns="http://www.w3.org/2000/svg" viewBox="0 0 306.01 116.66"><title>CMS-Garden-Logo_standard-positive</title><path d="M61.05,104.25V61.34l-24-16V42a1.15,1.15,0,0,0-2.3,0V46.6l24,16v41.67a1.15,1.15,0,0,0,2.3,0Zm-10-21.9V70.07l-19.9-12.6A1.15,1.15,0,0,0,30,59.41L48.78,71.34v11a1.15,1.15,0,0,0,2.3,0Z" transform="translate(-16.03 -13.81)" style="fill:#71a423"/><path d="M30.57,55.14H29.42a5.57,5.57,0,0,1-5.55,5.55,5.54,5.54,0,0,1-5.55-5.55,5.55,5.55,0,0,1,11.1,0h2.3A7.85,7.85,0,1,0,23.87,63a7.86,7.86,0,0,0,7.85-7.85Z" transform="translate(-16.03 -13.81)" style="fill:#2291d0"/><path d="M53.38,46.43,64,39.23V29a1.15,1.15,0,0,0-2.3,0v9L52.1,44.53a1.15,1.15,0,1,0,1.28,1.9ZM67,52l17-11.77a1.17,1.17,0,0,0,.3-1.6,1.15,1.15,0,0,0-1.6-.3l-17,11.78A1.15,1.15,0,1,0,67,52ZM87.49,42v9.39L69.67,63.93V81.86l27-18.06a1.15,1.15,0,1,0-1.28-1.91L72,77.56V65.12L89.79,52.55V42a1.15,1.15,0,0,0-2.3,0Z" transform="translate(-16.03 -13.81)" style="fill:#71a423"/><path d="M95.84,34.83H94.69a5.55,5.55,0,0,1-5.54,5.53,5.54,5.54,0,1,1,5.54-5.53H97a7.85,7.85,0,1,0-7.84,7.83A7.8,7.8,0,0,0,97,34.83Z" transform="translate(-16.03 -13.81)" style="fill:#285a9c"/><path d="M108.11,59H107a5.53,5.53,0,1,1-5.53-5.54A5.52,5.52,0,0,1,107,59h2.3A7.82,7.82,0,1,0,107,64.5,7.81,7.81,0,0,0,109.26,59Z" transform="translate(-16.03 -13.81)" style="fill:#f18700"/><path d="M68.81,21.66H67.66A5.53,5.53,0,1,1,66,17.73a5.55,5.55,0,0,1,1.62,3.93H70a7.83,7.83,0,1,0-7.84,7.84A7.84,7.84,0,0,0,70,21.66Z" transform="translate(-16.03 -13.81)" style="fill:#b71923"/><path d="M42.85,34H41.7a5.55,5.55,0,1,1-5.55-5.55A5.51,5.51,0,0,1,41.7,34H44a7.85,7.85,0,1,0-7.85,7.84A7.8,7.8,0,0,0,44,34Z" transform="translate(-16.03 -13.81)" style="fill:#424241"/><text transform="translate(252.31 108.75)" style="font-size:39.781131744384766px;fill:#8db248;font-family:AirstripFour, Airstrip Four"><tspan xml:space="preserve">  </tspan></text><text transform="translate(274.39 108.75)" style="font-size:31.700550079345703px;fill:#8db248;font-family:AirstripFour, Airstrip Four"> </text><path d="M273.82,121.8h19a2.17,2.17,0,1,0,0-4.34h-19a2.17,2.17,0,1,0,0,4.34Zm-.15-9.47h19a2.17,2.17,0,0,0,0-4.34h-19a2.17,2.17,0,0,0,0,4.34Zm0-9.78h19a2.17,2.17,0,0,0,0-4.34h-19a2.17,2.17,0,0,0,0,4.34Z" transform="translate(-16.03 -13.81)" style="fill:#71a423"/><path d="M95.78,117.9a2.26,2.26,0,0,0-1.74-.58H84.29a3.17,3.17,0,0,1-3.52-3.52v-7.62a3.81,3.81,0,0,1,.84-2.64,3.19,3.19,0,0,1,2.47-.93h9.8a2.71,2.71,0,0,0,1.86-.61,3,3,0,0,0,0-3.53,2.57,2.57,0,0,0-1.86-.57H84.23c-2.83,0-4.85.71-6.17,2s-2,3.37-2,6.23v7.49c0,2.9.71,5,2,6.33s3.34,2.08,6.17,2.08H94a2.44,2.44,0,0,0,1.8-.57,2.41,2.41,0,0,0,.57-1.77A2.53,2.53,0,0,0,95.78,117.9Z" transform="translate(-16.03 -13.81)" style="fill:#424241"/><path d="M133.25,106.27c0-2.89-.71-5-2-6.31s-3.34-2.07-6.16-2.07h0l-21.3,0h0a2.63,2.63,0,0,0-1.85.6,2.42,2.42,0,0,0-.58,1.78V119.6a2.54,2.54,0,0,0,.57,1.84,2.35,2.35,0,0,0,1.77.57,2.44,2.44,0,0,0,1.82-.58,2.46,2.46,0,0,0,.58-1.83v-17h5.35a3.57,3.57,0,0,1,2.61.9,3.61,3.61,0,0,1,.89,2.63v13.47a2.48,2.48,0,0,0,.58,1.84,3.06,3.06,0,0,0,3.6,0,2.42,2.42,0,0,0,.57-1.79l0-17.06H125a3.58,3.58,0,0,1,2.62.9,3.62,3.62,0,0,1,.9,2.63v13.47a2.54,2.54,0,0,0,.57,1.84,2.38,2.38,0,0,0,1.8.59,2.43,2.43,0,0,0,1.8-.57,2.49,2.49,0,0,0,.57-1.8Z" transform="translate(-16.03 -13.81)" style="fill:#424241"/><path d="M154.54,109.43c-1.31-1.17-3.34-1.83-6.17-1.88h-1.86A4.74,4.74,0,0,1,144,107a2.08,2.08,0,0,1-1-1.84,2.24,2.24,0,0,1,1-2,4.54,4.54,0,0,1,2.53-.58h7.77A2.34,2.34,0,0,0,156,102a2.53,2.53,0,0,0,.6-1.81,2.35,2.35,0,0,0-.57-1.76,2.44,2.44,0,0,0-1.8-.56h-7.78c-2.82,0-4.85.62-6.15,1.76s-2,2.85-2,5.29V105h0v0c0,2.49.69,4.25,2,5.42s3.31,1.8,6.11,1.8h2a4.62,4.62,0,0,1,2.45.61,2.2,2.2,0,0,1,1,1.9h0a2.31,2.31,0,0,1-1,1.93,4.41,4.41,0,0,1-2.48.59H140.5a2.23,2.23,0,0,0-1.71.6,2.74,2.74,0,0,0-.57,1.89,2.22,2.22,0,0,0,.55,1.63,2.38,2.38,0,0,0,1.7.53h7.91c2.81,0,4.83-.64,6.13-1.81s2-2.93,2-5.42h0C156.52,112.33,155.85,110.6,154.54,109.43Z" transform="translate(-16.03 -13.81)" style="fill:#424241"/><path d="M192.92,100.23a2.54,2.54,0,0,0-.56-1.83,2.33,2.33,0,0,0-1.75-.57h-9.72c-2.86,0-4.9.71-6.23,2s-2,3.38-2,6.25v7.47c0,2.9.71,5,2,6.33S178,122,180.8,122h7.38v.54a2.57,2.57,0,0,1-.68,1.9,2.63,2.63,0,0,1-1.92.66h-7a2.26,2.26,0,0,0-1.7.56,2.46,2.46,0,0,0-.55,1.78,2.54,2.54,0,0,0,.57,1.81,2.24,2.24,0,0,0,1.71.56h6.07c2.82,0,4.85-.69,6.17-2s2-3.28,2-6.07Zm-4.74,17h-7.32a3.54,3.54,0,0,1-2.62-.92,3.64,3.64,0,0,1-.89-2.63v-7.59a3.57,3.57,0,0,1,.89-2.62,3.49,3.49,0,0,1,2.6-.9h7.34Z" transform="translate(-16.03 -13.81)" style="fill:#424241"/><path d="M218.14,100.23a2.38,2.38,0,0,0-.57-1.77,2.43,2.43,0,0,0-1.8-.56h-9.68c-2.83,0-4.84.72-6.16,2.07s-2,3.42-2,6.31v13.42a2.53,2.53,0,0,0,4.16,1.78,2.53,2.53,0,0,0,.58-1.84h0l0-5.39,10.73,0v5.36a2.53,2.53,0,0,0,.59,1.84,2.46,2.46,0,0,0,1.84.59,2.27,2.27,0,0,0,1.75-.58,2.55,2.55,0,0,0,.56-1.85Zm-4.74,8.7v.54H202.64v-3.31a3.16,3.16,0,0,1,3.51-3.53h7.25Z" transform="translate(-16.03 -13.81)" style="fill:#424241"/><path d="M241.53,100.23a2.38,2.38,0,0,0-.57-1.77,2.44,2.44,0,0,0-1.8-.56h-7.78c-2.83,0-4.85.72-6.17,2.07s-2,3.42-2,6.31v13.42a2.55,2.55,0,0,0,4.17,1.79,2.55,2.55,0,0,0,.57-1.85V106.16a3.16,3.16,0,0,1,3.51-3.53h5.36v2.44a2.09,2.09,0,0,0,2.43,2.41,2.34,2.34,0,0,0,1.75-.57,2.57,2.57,0,0,0,.56-1.84Z" transform="translate(-16.03 -13.81)" style="fill:#424241"/><path d="M265.27,90.62a3.12,3.12,0,0,0-3.61,0,2.55,2.55,0,0,0-.56,1.85v5.41h-7.39c-2.83,0-4.85.72-6.17,2.07s-2,3.42-2,6.31v7.58c0,2.84.71,4.86,2.05,6.18s3.37,2,6.22,2h9.75a2.31,2.31,0,0,0,1.76-.58,2.55,2.55,0,0,0,.56-1.85V92.41A2.38,2.38,0,0,0,265.27,90.62Zm-4.17,26.13v.54h-7.34a3.66,3.66,0,0,1-2.6-.85,3.35,3.35,0,0,1-.91-2.51v-7.77a3.6,3.6,0,0,1,.91-2.63,3.57,3.57,0,0,1,2.61-.9h7.33Z" transform="translate(-16.03 -13.81)" style="fill:#424241"/><path d="M322,106.27c0-2.89-.7-5-2-6.31s-3.33-2.07-6.16-2.07H304.1a2.47,2.47,0,0,0-1.81.56,2.39,2.39,0,0,0-.57,1.77V119.6a2.58,2.58,0,0,0,.57,1.84,2.34,2.34,0,0,0,1.76.57,2.08,2.08,0,0,0,2.41-2.41v-17h7.35a3.52,3.52,0,0,1,2.59.9,3.62,3.62,0,0,1,.9,2.63v13.47a2.54,2.54,0,0,0,.57,1.84,2.36,2.36,0,0,0,1.8.59,2.46,2.46,0,0,0,1.8-.57,2.51,2.51,0,0,0,.56-1.8Z" transform="translate(-16.03 -13.81)" style="fill:#424241"/></svg>