<svg version="1" xmlns="http://www.w3.org/2000/svg" width="682.667" height="682.667" viewBox="0 0 512.000000 512.000000"><path d="M246.3 37.9c-14 3.6-26 15.9-29.1 29.8-2.2 9.9.4 22.8 6.5 31.6 5.4 7.8 17.6 15.2 26.2 15.9 1.7.1 3.1.9 3.3 1.8.2.8.3 10.4.3 21.2l-.1 19.8-24.9 16.8c-22.7 15.3-25 17.2-25.3 19.9-.4 3.6 1.9 6.3 5.3 6.3 1.9 0 35.6-21.8 54.3-35.1 2.3-1.6 2.3-1.9 2.4-26.5l.1-24.8 5.5-2.3c10.1-4.1 18.1-12.5 21.9-23.1 3.2-9 2.6-20.8-1.6-29.4-4-8.3-10.9-15.2-18.9-19-5-2.4-7.9-3.1-14.5-3.4-4.5-.2-9.6.1-11.4.5zm18.4 12.4c6 2.2 11.7 7.2 14.8 12.8 2.6 4.7 3 6.4 3 13.4 0 6.9-.4 8.6-2.7 12.7-5.9 9.8-15.1 14.9-26 14.2-14.3-.8-24.7-11.8-25.4-26.5-.5-11.1 5.4-20.6 15.9-25.5 5.8-2.7 14.8-3.1 20.4-1.1z"/><path d="M117 99.5c-13.8 2.8-26 14.9-29.3 29-3.2 13.8.3 26.5 10.2 36.8 4.1 4.3 12.1 9.2 16.7 10.2 1.8.3 3.4 1.4 3.6 2.3.2.9.4 6.5.3 12.5l-.1 10.7 60.2 40.1 60.2 40.1.1 105c0 97.8.1 105.1 1.7 106.9 2.1 2.3 5.7 2.5 7.8.3.9-.9 1.6-3.3 1.7-5.7 0-2.3.1-51.2.2-108.6l.2-104.4-60.1-40.1-60.2-40.1v-8.6l.1-8.6 5.9-1.7c18.6-5.2 29.8-21.4 28.6-41-1.5-23.6-23.9-40-47.8-35.1zm19.4 12.9c1.9.8 5.5 3.3 7.9 5.5 13.7 12.6 11.2 34.3-5 43.8-3.4 2-6.3 2.7-11.9 3.1-6.8.4-7.9.2-13.7-2.7-21.8-10.9-19.9-41.3 3.1-50.1 5.4-2.1 14.1-1.9 19.6.4zM376.9 105.4c-9.3 3.8-15.7 9.1-20.4 17.1-5.5 9.2-6.6 23.1-2.6 33.5 1.1 3 1.7 5.7 1.2 6-1 .6-39.6 27.3-64.8 44.7-9.7 6.7-18 12.8-18.4 13.5-2.4 3.7.6 8.8 5 8.8 1.2 0 6.8-3.2 12.4-7.1 5.6-3.9 24.5-17 42-29.1l31.8-22 5.2 3.6c2.9 1.9 7.1 4 9.5 4.7 2.9.8 4.2 1.8 4.3 3.1v40.7c-.1 1.1-1.9 3.2-4.3 4.9-2.4 1.6-13.1 9.1-23.8 16.7-20.7 14.7-21.1 15-44.5 31.4-8.2 5.7-15.3 10.9-15.7 11.5-.8 1.2-1 89.6-.2 89.6.2 0 29.6-19.5 65.2-43.4l64.7-43.3 4.8 3.7c17.5 13.4 43.4 9.3 55.9-8.8 5.7-8.2 8.3-21 6.3-30.5-5.2-24.9-32.5-38.3-55.8-27.3-17 8.1-25.8 28.7-20 47.1l1.9 6-52.9 35.5c-29.1 19.5-54.2 36.3-55.8 37.3l-2.9 1.9v-30.9l.1-30.8 3.7-2.6c2.9-2 32-22.5 70.8-49.9 1.2-.8 4.9-3.4 8.3-5.8l6.1-4.3v-49.6l4.2-.7c13.7-2.2 26.3-13.7 30.2-27.6 5.2-18.2-3.9-38.3-21-46.6-5-2.4-7.3-2.9-15.4-3.1-8-.2-10.4.2-15.1 2.1zm24.6 11.5c5.6 2.5 10.1 6.5 13.3 12 2.4 4 2.7 5.6 2.7 13.1 0 7.4-.3 9.1-2.7 13-3.5 5.9-7.3 9.4-12.9 11.9-13.7 6.1-29.1.5-35.6-12.7-11.2-22.9 11.9-47.4 35.2-37.3zm63.6 121.7c12.4 6.8 17.7 22.1 12 34.9-9.8 22.2-40.5 22-50.3-.2-5.2-11.7-.5-26.8 10.4-33.8 8.1-5.1 19.4-5.5 27.9-.9z"/><path d="M55 205.5c-10.2 2.7-18 8.4-23.5 17-4.7 7.3-6.5 14.1-6.1 23.4.6 14.3 9 26.8 22.5 33.3 6 3 7.4 3.3 16.1 3.2 12.2 0 18.7-2.4 26.9-10 3.2-3 6.1-5.4 6.4-5.4.4 0 4.6 2.6 9.4 5.7 4.8 3.2 10 6.4 11.4 7.3 3.6 2.1 15.3 9.5 44.9 28.4l25.5 16.2.1 28c.1 18.4.5 28.7 1.2 30.1 1.6 2.8 5.8 3.5 8.5 1.3 2.2-1.8 2.2-2.1 2.2-33.5 0-17.4-.2-31.9-.5-32.4-.3-.4-22.4-14.6-49.2-31.6-47.3-29.8-48.7-30.9-48.1-33.4.4-1.4.7-6.2.7-10.7-.1-8.8-2.5-15.8-8-23-8.8-11.5-26.6-17.7-40.4-13.9zM76.5 219c6.2 3 12.2 10.1 14.1 16.8 3.8 13-1.6 25.6-14.1 32.5-5.8 3.2-18.2 3.1-24.4-.1-5.9-3.2-9.9-7.5-12.9-14-2.1-4.6-2.4-6.5-2-12.1.3-3.9 1.4-8.3 2.6-10.7 2.7-5.3 10.1-11.9 15.5-13.7 5.8-2 15.5-1.4 21.2 1.3z"/></svg>