<?xml version="1.0" encoding="utf-8"?>
<!-- Generator: Adobe Illustrator 23.0.3, SVG Export Plug-In . SVG Version: 6.00 Build 0)  -->
<svg version="1.1" id="Ebene_1" xmlns="http://www.w3.org/2000/svg" xmlns:xlink="http://www.w3.org/1999/xlink" x="0px" y="0px"
	 viewBox="0 0 1920 1920" enable-background="new 0 0 1920 1920" xml:space="preserve">
<g>
	<path fill="#72A323" d="M928.201,1869.499v-855.882L448.735,694.944v-67.881c0-12.663-10.299-22.933-22.952-22.933
		c-12.624,0-22.923,10.27-22.923,22.933v92.458l479.506,318.685v831.292c0,12.673,10.249,22.943,22.892,22.943
		C917.941,1892.443,928.201,1882.172,928.201,1869.499L928.201,1869.499z M729.281,1432.586v-244.807L332.376,936.277
		c-10.715-6.785-24.862-3.605-31.627,7.089c-6.798,10.692-3.615,24.871,7.098,31.635l375.547,237.993v219.591
		c0,12.684,10.27,22.912,22.933,22.912C718.969,1455.498,729.281,1445.269,729.281,1432.586L729.281,1432.586z"/>
	<path fill="#1F90CF" d="M320.117,889.857h-22.954c0,30.686-12.39,58.183-32.496,78.269c-20.085,20.046-47.611,32.345-78.118,32.365
		c-61.234-0.021-110.694-49.369-110.694-110.634c0-30.498,12.309-57.985,32.413-78.078c20.106-20.057,47.613-32.405,78.281-32.425
		c30.455,0.021,57.983,12.369,78.118,32.425c20.147,20.114,32.496,47.622,32.496,78.078H320.117h22.892
		c-0.06-86.299-70.253-156.308-156.459-156.37c-86.52,0.041-156.521,70.141-156.55,156.37
		c-0.021,43.198,17.529,82.479,45.856,110.715c28.264,28.275,67.585,45.775,110.694,45.775
		c86.187-0.031,156.459-69.839,156.459-156.49H320.117L320.117,889.857z"/>
	<path fill="#72A323" d="M775.235,716.13l212.665-143.767V368.038c0-12.673-10.27-22.943-22.952-22.943
		c-12.663,0-22.933,10.27-22.933,22.943v179.979l-192.46,130.113c-10.481,7.108-13.207,21.367-6.159,31.859
		C750.495,720.471,764.775,723.217,775.235,716.13L775.235,716.13z M1047.379,827.44l340.071-234.932
		c10.442-7.199,13.037-21.469,5.888-31.9c-7.23-10.411-21.508-13.025-31.919-5.826l-340.133,234.922
		c-10.4,7.199-12.985,21.479-5.828,31.879C1022.69,832.015,1036.937,834.621,1047.379,827.44L1047.379,827.44z M1455.632,627.064
		v187.35l-355.462,250.856v357.693l538.398-360.429c10.543-7.069,13.37-21.277,6.312-31.799
		c-7.048-10.522-21.287-13.341-31.789-6.302l-467.045,312.626v-248.03l355.493-250.856v-211.11
		c0-12.663-10.291-22.933-22.954-22.933S1455.632,614.401,1455.632,627.064L1455.632,627.064z"/>
	<path fill="#285A9B" d="M1622.241,484.581h-22.923c0,30.556-12.39,58.014-32.475,78.097
		c-20.075,20.036-47.582,32.345-78.149,32.355c-30.527-0.01-58.115-12.32-78.26-32.374c-20.085-20.075-32.475-47.543-32.475-78.078
		c0.019-30.719,12.39-58.165,32.475-78.24c20.145-20.005,47.692-32.314,78.26-32.314c30.566,0.01,58.074,12.309,78.198,32.303
		c20.036,20.044,32.425,47.52,32.425,78.25H1622.241h22.892c0.06-43.239-17.55-82.512-45.895-110.707
		c-28.265-28.244-67.506-45.713-110.543-45.703c-86.208,0-156.552,69.717-156.552,156.409
		c0.021,86.45,70.302,156.277,156.552,156.318c86.266-0.031,156.438-69.909,156.438-156.318H1622.241L1622.241,484.581z"/>
	<path fill="#F08700" d="M1867.069,965.975h-22.904c-0.019,61.114-49.198,110.353-110.421,110.372
		c-61.155-0.019-110.392-49.258-110.413-110.372c0.021-61.286,49.218-110.432,110.413-110.473
		c61.224,0.041,110.402,49.188,110.421,110.473H1867.069H1890c0-43.159-17.448-82.419-45.663-110.613
		c-28.234-28.255-67.465-45.725-110.593-45.715c-43.14-0.01-82.37,17.46-110.564,45.715
		c-28.244,28.194-45.725,67.455-45.725,110.613c0,43.12,17.482,82.31,45.725,110.554c28.194,28.215,67.424,45.684,110.564,45.684
		c43.128,0,82.359-17.469,110.593-45.713c28.215-28.215,45.663-67.405,45.663-110.524H1867.069L1867.069,965.975z"/>
	<path fill="#B61923" d="M1083.024,221.879h-22.941c0,30.506-12.34,58.066-32.345,78.19c-20.085,20.106-47.531,32.465-78.109,32.465
		c-30.678-0.01-58.144-12.39-78.219-32.465c-20.005-20.116-32.233-47.642-32.314-78.19c0.081-61.192,49.229-110.624,110.533-110.644
		c30.587,0.021,58.024,12.34,78.109,32.394c20.005,20.077,32.345,47.603,32.345,78.25H1083.024h22.954
		c-0.06-86.419-69.959-156.49-156.349-156.498c-43.208-0.041-82.5,17.55-110.674,45.854
		c-28.244,28.275-45.684,67.527-45.684,110.644c0,43.018,17.459,82.26,45.663,110.553c28.173,28.327,67.465,45.988,110.694,45.957
		c86.45-0.039,156.268-70.313,156.349-156.51H1083.024L1083.024,221.879z"/>
	<path fill="#424241" d="M565.127,467.435h-22.933c0,30.496-12.33,58.014-32.436,78.138c-20.075,20.085-47.632,32.475-78.3,32.475
		c-30.457,0-58.014-12.359-78.138-32.475c-20.127-20.135-32.467-47.673-32.496-78.138c0.029-30.639,12.369-58.165,32.454-78.26
		c20.145-20.065,47.673-32.384,78.18-32.394c61.234,0.01,110.614,49.471,110.735,110.655H565.127h22.923
		c0-43.169-17.552-82.45-45.856-110.707c-28.285-28.283-67.546-45.815-110.735-45.794c-86.208,0.021-156.44,69.939-156.521,156.5
		c0.081,86.297,70.232,156.388,156.521,156.479c86.52-0.041,156.57-70.242,156.591-156.479H565.127L565.127,467.435z"/>
</g>
<g>
</g>
<g>
</g>
<g>
</g>
<g>
</g>
<g>
</g>
<g>
</g>
<g>
</g>
<g>
</g>
<g>
</g>
<g>
</g>
<g>
</g>
<g>
</g>
<g>
</g>
<g>
</g>
<g>
</g>
</svg>
